# xmcd
#
# Track frame offsets: 
#        150
#        32900
#        68585
#        103744
#        136724
#        157763
#        186698
#        214718
#        244710
#        273048
#        299414
#
# Disc length: 4487 seconds
#
# Revision: 0
# Processed by: cddbd v1.5.2PL0 Copyright (c) Steve Scherf et al.
# Submitted via: ExactAudioCopy v1.0b3
#
DISCID=9b11850b
DTITLE=Various Artist - The Best In Hardstyle - CD 1
DYEAR=1900
DGENRE=
TTITLE0=The Beholder and Balistic Feat. Max Enforcer - Nuclear Reaction 
TTITLE0=Decibel Anthem 2005 (Original)
TTITLE1=Ruffian Meets Deepack - Who's Got The Beatz (Original)
TTITLE2=J.T.S. - Therapia
TTITLE3=DJ Pavo and Blutonium Boy - Floorfilla (DJ Pavo Mix)
TTITLE4=Felix Project - On The Floor (Mark With AK Rmx)
TTITLE5=Max B. Grant Meets Joaquin DJ - Unbelievable (Original Mix)
TTITLE6=Mikado Punchers - Pings On Acid (MP Original Mix)
TTITLE7=Explozzer Vs. DJ Two-S - Hardstyle Chick (DJ Two-S Mix)
TTITLE8=Nightbass DJ Team Feat. Dick Rules - Horny (Le Brisc Vs. Kai J
TTITLE8=axx Mix)
TTITLE9=DJ Divato - The Noise (DJ Divato Rmx)
TTITLE10=Minebass - Way We Rock (Miss Mine Vs. Choose One Mix)
EXTD=
EXTT0=
EXTT1=
EXTT2=
EXTT3=
EXTT4=
EXTT5=
EXTT6=
EXTT7=
EXTT8=
EXTT9=
EXTT10=
PLAYORDER=
